<svg xmlns="http://www.w3.org/2000/svg" viewBox="0 0 32 32">
  <!-- Background -->
  <rect width="32" height="32" rx="4" fill="#fffff8"/>
  
  <!-- Checkerboard pattern - 4x4 grid without outer borders -->
  <!-- Row 1 -->
  <rect x="4" y="4" width="6" height="6" fill="#a00000"/>
  <rect x="10" y="4" width="6" height="6" fill="#fffff8"/>
  <rect x="16" y="4" width="6" height="6" fill="#a00000"/>
  <rect x="22" y="4" width="6" height="6" fill="#fffff8"/>
  
  <!-- Row 2 -->
  <rect x="4" y="10" width="6" height="6" fill="#fffff8"/>
  <rect x="10" y="10" width="6" height="6" fill="#a00000"/>
  <rect x="16" y="10" width="6" height="6" fill="#fffff8"/>
  <rect x="22" y="10" width="6" height="6" fill="#a00000"/>
  
  <!-- Row 3 -->
  <rect x="4" y="16" width="6" height="6" fill="#a00000"/>
  <rect x="10" y="16" width="6" height="6" fill="#fffff8"/>
  <rect x="16" y="16" width="6" height="6" fill="#a00000"/>
  <rect x="22" y="16" width="6" height="6" fill="#fffff8"/>
  
  <!-- Row 4 -->
  <rect x="4" y="22" width="6" height="6" fill="#fffff8"/>
  <rect x="10" y="22" width="6" height="6" fill="#a00000"/>
  <rect x="16" y="22" width="6" height="6" fill="#fffff8"/>
  <rect x="22" y="22" width="6" height="6" fill="#a00000"/>
</svg>
